<svg width="64" height="64" viewBox="0 0 64 64" fill="none" xmlns="http://www.w3.org/2000/svg">
  <rect width="64" height="64" rx="18" fill="#4F46E5"/>
  <path d="M18 22C18 19.7909 19.7909 18 22 18H42C44.2091 18 46 19.7909 46 22V41C46 43.2091 44.2091 45 42 45H22C19.7909 45 18 43.2091 18 41V22Z" fill="white" fill-opacity="0.14"/>
  <path d="M22 25.5L29 21.5" stroke="white" stroke-width="3" stroke-linecap="round"/>
  <path d="M29 25.5L36 21.5" stroke="white" stroke-width="3" stroke-linecap="round"/>
  <path d="M36 25.5L42 22" stroke="white" stroke-width="3" stroke-linecap="round"/>
  <path d="M22 27H42C43.1046 27 44 27.8954 44 29V41C44 42.1046 43.1046 43 42 43H22C20.8954 43 20 42.1046 20 41V29C20 27.8954 20.8954 27 22 27Z" stroke="white" stroke-width="3"/>
  <path d="M28 33.5L37 38V29L28 33.5Z" fill="white"/>
</svg>
